<svg style="position: absolute; top: 0; left: 0; width: 0; height: 0;" width="0" height="0" version="1.1" xmlns="http://www.w3.org/2000/svg" xmlns:xlink="http://www.w3.org/1999/xlink">
  <defs>

      <symbol id="svg-main-title-1-1" viewBox="0 0 100 100">     
          <g id="hi">
            <path d="M67.6,40.8c-0.6,0-1.2-0.2-1.2-2.6c0-3-0.4-7.7-1-11.1c1.7,2.1,4,6.1,4,9.6C69.4,39.2,68.5,40.8,67.6,40.8z"></path>
          </g>
      </symbol>

      <symbol id="svg-main-title-1-2" viewBox="0 0 100 100">
<g id="hi_1_">
      <path d="M22.4,75.4c-2.5,0-8.6,11.1-8.7,11.2c-0.5,1.1-1.2,2.4-1.6,2.7c-1.1-0.8-4-4.8-4.8-6.5c0.2,0,0.5,0,0.8,0
            c1.8,0,2.7-0.5,7.7-3.5c2.9-1.8,3.7-2.4,3.7-6c0-6-0.2-14.4-0.5-19.6c-0.1-3.1-0.1-5-4.1-5c-0.3,0-1.1,0.1-2.4,0.2
            c-0.5,0.1-1.2,0.1-1.6,0.2c0,0-0.2-0.2-0.3-0.3l-0.9-1.1c0.8,0,1.7,0.1,2.6,0.1c2.1,0.1,4.2,0.2,5,0.2c1.3,0,2.1-0.2,3.2-1.4
            l0.6-0.6c0.7-0.7,1.2-1.3,1.4-1.4c0.9,0.3,3.6,2.8,4.4,3.9c-0.1,0.1-0.2,0.1-0.4,0.2c-3.1,1-3.4,2.4-3.4,3.9c0,1,0.3,18.9,0.4,20
            c0,0,0,1-0.1,1.6C23.1,74.9,22.7,75.4,22.4,75.4z"></path>
</g>
      </symbol>

      <symbol id="svg-main-title-1-3" viewBox="0 0 100 100">
<g id="hi_2_">
      <g>
            <path d="M23.5,72.5c1.8,11.9,14.1,11.9,34.6,11.9c7.6,0,23.3,0,32.6-2.3c0.3-0.1,0.8-0.2,1.4-0.4c0.1,0,0.1,0,0.2,0
                  c-1.9,1.9-3.1,4.1-4.1,7.3c-0.1,0.2-0.1,0.5-0.2,0.6c-0.3,0-0.7,0-1.2,0c-1.2,0-4.7,0-8.2,0.1c-3.7,0-7.4,0.1-8.7,0.1
                  c-3.3,0-18.6-0.7-25-1.2c-4.6-0.5-12.3-1.2-17.2-7c-0.2-0.2-0.6-0.8-1.1-1.5c-2.8-4-3.3-4.6-4.2-4.6C20,75.4,23.5,72.5,23.5,72.5z
                  "></path>
      </g>
</g>
      </symbol>

      <symbol id="svg-main-title-1-4" viewBox="0 0 100 100">

<g id="hi_3_">
      <path d="M25,32.1c-1.8,0-2.9-1.9-4.5-4.9c-2.8-5.2-7.6-11.2-10.3-14c1.3,0.6,2.7,1.3,3.9,2.1c5.2,3.1,12.3,10.2,12.3,14.8
            C26.4,31.9,25.5,32.1,25,32.1z"></path>
</g>

      </symbol>

      <symbol id="svg-main-title-1-5" viewBox="0 0 100 100">

<g id="hi_4_">
      <path d="M78.3,37.1c0.2-0.7,0.3-1.3,0.4-1.6c1.1-5.1,1.3-7.1,1.3-9.3c0-2.5-0.4-3.7-3-3.7h-2.3c-2.8,0-7.5,0-11.3,0.2c0,0,0,0,0,0
            c-0.1,0-0.5,0-1.7,0.2c-0.3,0-0.7,0.1-0.9,0.1c-0.1-0.1-0.1-0.1-0.2-0.2l-0.9-1.1c0.9,0,1.9,0.1,2.9,0.2c2.2,0.1,4.3,0.2,5.1,0.2
            c2.7,0,3.8-1,3.8-3.6c0-1.3-0.1-5-0.3-6.4c0-0.4-0.2-0.9-0.5-1.7c0-0.1-0.1-0.2-0.1-0.4c1.4,0.2,4.6,0.6,5.6,0.8
            c-0.1,0.1-0.2,0.3-0.3,0.4c-0.4,0.6-0.7,1-0.8,1.3l0,0.1l0,0.1c-0.1,0.7-0.1,2.5-0.1,4c0,3.7,0,5.5,3.7,5.5c4.2,0,5.3-0.1,6.7-2.1
            l0.1-0.1c0.9-1.3,1.6-2.2,1.8-2.3c0,0,0,0,0,0c1.1,0.4,5.1,3.4,5.3,4.5c-0.5,0.3-2.4,0.3-4,0.3h-5.2c-1.9,0-2,1.2-2,1.6
            c0,0.9,0.8,1.6,2.4,2.1c0.9,0.4,1.3,0.7,1.5,0.8c-0.2,0.3-0.7,0.7-0.9,0.9c-0.6,0.6-0.9,0.9-1.1,1.2c-0.1,0.2-0.4,0.7-0.8,1.3
            C81.6,31.7,79.8,34.8,78.3,37.1z"></path>
</g>

      </symbol>

      <symbol id="svg-main-title-1-6" viewBox="0 0 100 100">
 
<g id="hi_5_">
      <path d="M55.1,52.9c0.1-0.6,0.6-1.1,1.4-2c0.2-0.2,0.5-0.5,0.7-0.7c-0.2-0.3-0.8-0.9-1.4-1.4l-0.1-0.1c-1-0.8-2.2-1.8-2.6-2
            c-0.2,0.2-0.7,0.7-1.3,1.5c-0.7,0.9-1.7,0.8-2.4,0.8h-3.9c-1.9,0-4.1-0.8-4.5-1.1c-2.5-1.2-3.2-1.7-3.2-4.2c0-0.1,0.2-9.1,0.3-9.7
            c0.7-2.2,2.4-2.1,3.7-2.1h4.5c1.4,0,2.4,0,3.4,1.4l0,0l0,0c0.5,0.9,0.8,1.4,2.3,1.4c1.1,0,2.3-0.4,2.3-2.3c0-0.8-0.1-3-0.1-5.2
            c-0.1-2.1-0.1-4-0.1-4.7c0-6.2,0.4-6.6,0.8-7.1l0.3-0.3c0.4-0.4,0.8-0.8,1-0.9c-0.3-0.8-2.7-2.9-3.6-3.2c-0.3,0.1-0.7,0.7-1.5,2
            c-1,1.7-1.7,1.8-3.9,1.8h-5.6c-1.9,0-2.3-0.2-4.1-1.2c-1-0.6-2.9-1.8-4.2-2.1c0.1,0.6,0.3,1.7,0.5,2.4c0.1,0.7,0.3,1.2,0.3,1.5
            l0,0.1c0,0.2,0.1,0.8,0.2,1.8c0.3,3.2,1,9,1,12c0,22.9-0.2,27.9-5.8,39.2c1.1-1.2,2.1-2.4,2.7-3.5c1.7-2.8,1.9-3.5,4.3-11.8l0,0
            l0-0.1c0-0.1,0.1-0.3,0.1-0.4c0.3-0.9,0.6-1.6,1.5-1.6c0.4,0,1.7,0.2,1.7,2.1v3.2c0,1.5-0.3,5.7-0.4,9.7c-0.1,3.7-0.3,7.3-0.3,8.5
            c0,2.5,0.4,3,1.1,3c2.6,0,2.9-2.9,2.9-4.1c0.1-3.1,0.9-4.4,3-4.4h2.6c1,0,2.8,0.2,3.3,2.5l0.1,0.2c0.2,0.7,0.3,0.9,1.2,0.9
            c0.6,0,2.3,0,2.3-3.5c0-0.6-0.2-2.5-0.4-4.1C55.2,63.3,55,61.6,55,61V53L55.1,52.9z M38,19c0-2.5,1.6-4,4.3-4h4.5
            c4,0,4.2,3.1,4.2,4.5v8.4c0,2.5-1.5,4.1-4.2,4.1h-4.5c-4,0-4.3-3.3-4.3-4.6V19z M52,64.4c0,2.9-0.2,4.6-3.2,4.6h-2.4
            c-3.4,0-3.4-2.3-3.4-4.4V53.3c0-3.8,2.4-4.3,3.4-4.3h2.4c2.9,0,3.2,2.5,3.2,4.3V64.4z"></path>
</g>

      </symbol>

      <symbol id="svg-main-title-1-7" viewBox="0 0 100 100">

<g id="hi_6_">
      <g>
            <path d="M72.6,79.5c-1.3,0-1.6-0.5-1.6-1.9c0-0.9,0.1-3.2,0.1-5.5c0.1-2.2,0.1-4.3,0.1-5.1c0-4.1,0-6-4.6-6
                  c-0.4,0-1.5,0.1-3.1,0.2c-0.9,0.1-1.9,0.1-2.4,0.2c-0.1-0.1-0.2-0.2-0.3-0.3L60,60c0.9,0.1,2,0.1,3,0.2c2,0.1,4,0.3,4.7,0.3
                  c3.6,0,3.6-3.2,3.6-5.5c0-6.7-0.1-7.8-0.2-8.1c-0.5-2.1-2.5-2.4-4.7-2.4c-0.7,0-2.8,0.1-4.8,0.3c-1.2,0.1-2.4,0.2-3,0.2
                  c-0.1-0.1-0.2-0.2-0.3-0.3l-0.9-1c0.1,0,0.2,0,0.2,0c1.1,0.1,1.8,0.2,2.1,0.2c4.3,0.2,8.5,0.3,13,0.3h6.5c4.7,0,5.9,0,6.8-3
                  c0.6-2.1,0.9-2.2,0.9-2.2c1,0.2,5.2,4.1,5.4,5.2c-0.3,0.2-2.3,0.2-4,0.2h-10c-3.7,0-3.7,2.9-3.7,4.3c0,9.2,0.2,9.6,0.2,9.9
                  c0.6,2,2.1,2,4.9,2c2.9,0,4.1-0.5,5.2-2.1c0.6-0.9,1.5-2.3,1.8-2.4l0,0c0,0,0,0,0.2,0c0.4,0.1,2,1.7,3.2,2.9l0.3,0.3
                  c0.3,0.3,1.1,1.1,1.4,1.5c-0.4,0.3-2.3,0.3-3.9,0.3h-9.2c-1.7,0-3.7,0.7-3.7,3.9c0,1.2,0.3,5.4,0.5,8.8c0.1,1.7,0.2,3.4,0.2,3.6
                  C75.6,79.4,73.3,79.5,72.6,79.5z"></path>
      </g>
</g>
  </symbol>

      <symbol id="svg-main-title-2-1" viewBox="0 0 100 100">
 
<g id="hyo">
      <path d="M21.4,20.3c-0.8,0-1.3-0.6-2.9-3.3l-0.3-0.5c-0.7-1.1-2.2-3.9-4.7-6.5c3.8,0.6,10.7,2.9,10.7,7.2
            C24.2,19,22.7,20.3,21.4,20.3z"></path>
</g>

      </symbol>
      <symbol id="svg-main-title-2-2" viewBox="0 0 100 100">

<g id="hyo_1_">
      <path d="M16.2,43.4c-0.9,0-1.1-0.3-2.4-3l-0.1-0.1c-1.3-2.9-4.1-6.1-5.8-7.9c3.5,0.8,10.8,3.3,10.8,7.8
            C18.7,43.3,16.5,43.4,16.2,43.4z"></path>
</g>

      </symbol>
      <symbol id="svg-main-title-2-3" viewBox="0 0 100 100">

<g id="hyo_2_">
      <path d="M17.9,91c-2.9,0-3.1-1.8-3.3-4.7l0-0.2c-0.3-6.2-0.5-12.1-5.9-15.9c4.8-0.3,6-2,10.5-12.4c1.7-4,3.8-9.4,5.7-14.5
            c-1.1,4.4-2.2,8.9-2.4,9.6c-4.3,15.2-5.1,17.8-5.1,20.7c0,2.4,0.3,3.5,1.9,7.8c0.1,0.3,0.2,0.7,0.4,1.1c0.5,1.7,1.5,4.5,1.5,5.5
            C21.1,89.4,19.8,91,17.9,91z"></path>
</g>

      </symbol>
      <symbol id="svg-main-title-2-4" viewBox="0 0 100 100">
<g id="hyo_3_">
      <path d="M87.2,90.5c-1.2,0-1.3-0.1-4.7-5.7l-0.1-0.2c-3.9-6.5-6.8-9.3-10.5-12.2c6.1,1.9,17.7,6.8,17.7,13.6
            C89.6,89,88.2,90.5,87.2,90.5z"></path>
</g>
</symbol>
      <symbol id="svg-main-title-2-5" viewBox="0 0 100 100">
<g id="hyo_4_">
      <path d="M40,52.6c-0.1-0.1-0.1-0.1-0.2-0.2l-0.9-1.1c0.1,0,0.2,0,0.3,0c1.1,0.1,1.7,0.1,2,0.1l1.7,0.1c4,0.2,7.4,0.3,11.3,0.3h11.6
            c2.4,0,2.7,0,3.3-0.3c0.7-0.3,1.5-1.2,3-3.4c0.3-0.4,0.7-1,1-1.3c1.6,1,5.3,3.9,5.7,4.9c0,0.1,0,0.1,0,0.1
            c-0.5,0.2-2.4,0.2-4.8,0.2H53.8c-7.6,0-10.8,0.2-12.1,0.3c-0.2,0-0.6,0.1-1,0.1C40.5,52.6,40.2,52.6,40,52.6z"></path>
</g>
      </symbol>
      <symbol id="svg-main-title-2-6" viewBox="0 0 100 100">

<g id="hyo_5_">
      <path d="M29.5,87.1c2.7-2.5,11.2-10.8,12-17.1c2.4,1.1,7.1,3.8,7.3,4.9c0,0,0,0,0,0c-0.3,0.2-1.2,0.5-2.3,0.8
            c-0.4,0.1-1,0.5-6.5,4.6c-3.1,2.2-6.6,4.8-7.7,5.5c-1.3,0.8-2.5,1.4-3.6,1.9C29.1,87.4,29.4,87.2,29.5,87.1z"></path>
</g>
      </symbol>
      <symbol id="svg-main-title-2-7" viewBox="0 0 100 100">
<g id="hyo_6_">
      <path d="M56,91.8c-0.4,0-0.5,0-2-2.3c-1-1.4-2.2-2.2-4.3-3.2c0.1,0,0.1,0,0.2,0c1.7,0.1,3.3,0.2,3.9,0.2c3.7,0,3.7-1.8,3.7-5.5
            c0-0.9,0-3.5-0.1-6c0-2.3-0.1-4.6-0.1-5.4c0-3.7,0-6.3-4-6.3h-8.9c-8.1,0-11,0.2-12,0.3c-0.2,0-0.6,0-1.2,0.1c-0.2,0-0.4,0-0.6,0.1
            c0,0-0.1-0.1-0.1-0.1l-1-1.1c0.1,0,0.1,0,0.2,0c1.1,0.1,1.9,0.1,2.2,0.1c4.3,0.3,8.2,0.4,13,0.4h33c2.5,0,2.8,0,3.4-0.3
            c0.6-0.2,1.3-1.2,2.8-3.2c0.4-0.5,0.8-1.2,1.2-1.6c1.7,0.9,6,3.9,6.8,5.2c-0.2,0.1-0.8,0.2-1.8,0.2H65.8c-3.3,0-3.9,2-3.9,3.7
            c0,1.4,0.2,5.3,0.4,9c0.2,3.4,0.4,6.9,0.4,8.1c0,3-0.3,3.7-0.8,4.4C60.5,90.4,57.6,91.8,56,91.8z"></path>
</g>
      </symbol>
      <symbol id="svg-main-title-2-8" viewBox="0 0 100 100">
<g id="hyo_7_">
      <g>
            <path d="M36.6,45.3c-0.6,0-0.7-0.1-0.7-0.1c0,0-0.1-0.2-0.1-0.9c0-0.7,0.1-2.8,0.1-4.7c0.1-2,0.1-3.9,0.1-4.5
                  c0-9.4-0.3-12.2-0.5-13.2c0.6,0.2,1.4,0.5,2.4,1c3.1,1.7,4.2,1.8,5.4,1.8h3.7C51,24.6,51,22,51,19c0-3.5,0-5.8-3.8-5.8
                  c0,0-3.4,0-4.2,0c-2,0-4.8,0-7.3,0.2c0,0,0,0,0,0c-0.2,0-0.7,0.1-1.8,0.2c-0.3,0-0.6,0.1-0.7,0.1c-0.1-0.1-0.1-0.1-0.2-0.2
                  l-0.9-1.1c0.1,0,0.2,0,0.3,0c1.1,0.1,1.7,0.1,2,0.1c4.3,0.3,8.2,0.4,13.1,0.4h30.2c2.5,0,2.9,0,3.5-0.3c0.7-0.2,1.5-1.2,3.2-3.3
                  c0.3-0.4,0.8-1,1.1-1.3c1.5,1,5,4,5.3,4.9c0,0,0,0,0,0.1c-0.6,0.2-2.4,0.2-4.8,0.2H72.2c-3.7,0-3.7,2.3-3.7,6c0,2.8,0,5.5,3.7,5.5
                  h4.4c1.8,0,2.5-0.1,3.7-1.7l0.2-0.3c0.3-0.4,0.6-0.8,0.7-1c0.5,0.3,2,1,6,3.2l0.3,0.2c-0.3,0.3-0.8,0.8-1.3,1.2l-0.1,0l-0.2,0.2
                  c-1,0.9-1.4,1.4-1.4,3c0,2.5,0.1,6.1,0.4,9.2v0c0,0.1,0,0.3,0.1,0.5c0.1,0.4,0.1,1.1,0.1,1.5c0,3-2.9,3.2-3.5,3.2
                  c-0.6,0-0.7-0.1-1-0.9l-0.2-0.3c-0.6-1.7-2.8-1.7-3.5-1.7h-33c-2.5,0-2.9,0.3-3.8,2.7C39.9,44.1,39.3,45.3,36.6,45.3z M72.2,24.9
                  c-1.1,0-3.7,0.4-3.7,4.1c0,10.2,0,11.5,3.7,11.5h4.7c1.1,0,3.7-0.4,3.7-4.1c0-10,0-11.5-3.7-11.5H72.2z M58.2,24.9
                  c-3.7,0-3.7,3.2-3.7,4.4v7.3c0,3.6,2.6,3.9,3.7,3.9h3.1c3.7,0,3.7-3.2,3.7-4.4c0-10.2,0-11.2-3.7-11.2H58.2z M43.8,24.9
                  c-3.9,0-3.9,2.1-3.9,7.8c0,5.7,0,7.8,3.9,7.8H47c3.9,0,3.9-2.1,3.9-7.8c0-5.7,0-7.8-3.9-7.8H43.8z M58.3,13.2
                  c-3.7,0-3.7,3.1-3.7,5c0,4,0,6.5,3.7,6.5h2.8c3.8,0,3.8-3.1,3.8-5c0-4,0-6.5-3.8-6.5H58.3z"></path>
      </g>
</g>
      </symbol>
      <symbol id="svg-main-title-3-1" viewBox="0 0 100 100">
<g id="sha_2_">
      <g>
            <path d="M67.9,38.3h6.1c4.2,0,5.1,0,6.9-2l0.3-0.4c1.7-2,2.2-2.6,2.5-2.7c1.3,0.6,6.5,3.8,7.7,5.1c-0.6,0.2-2.4,0.2-3.8,0.2H64.9
                  H46.7H21.4c-8.1,0-11,0.2-12,0.3c-0.2,0-0.6,0-1.2,0.1C8,39,7.8,39,7.6,39c0,0-0.1-0.1-0.1-0.1l-1-1.1c0.1,0,0.1,0,0.2,0
                  C7.8,37.9,8.6,38,8.9,38l1.7,0.1c4,0.2,7.4,0.3,11.3,0.3h16.5c3.8,0,4.1-1.7,4.1-11c0-1.3,0-4.3-3.8-4.3h-2.9
                  C29,23,25,23,23.7,23.2c-0.2,0-0.5,0.1-1.1,0.2c-0.2,0-0.5,0.1-0.6,0.1c0,0-0.2-0.3-0.2-0.3l-0.9-1.1c0.9,0.1,1.9,0.2,2.2,0.2
                  l0.1,0l0.1,0c4.9,0.2,8.8,0.3,13,0.3h2.6c3.7,0,3.7-3.2,3.7-4.2c0-1.5-0.1-3.3-0.2-5.2c-0.1-1.8-0.2-3.7-0.2-5c0,0,0,0,0,0
                  c0,0,0,0,0,0c0.4,0,1.6,0.3,7.1,1.9c0.9,0.3,1.3,0.5,1.4,0.6c-0.2,0.1-0.5,0.4-0.8,0.6l-0.1,0.1c-1.7,1.3-2.2,3.4-2.2,8.7
                  c0,2.4,1.7,2.4,3.9,2.4c1.9,0,2.5-0.6,4.5-2.9l0.5-0.6c0.5-0.6,1-1.2,1.2-1.4c1.4,0.6,5.8,3.9,7,5.2C63.8,23,62.1,23,60.8,23h-9.7
                  c-3.8,0-3.8,2.7-3.8,5.2c0,8.2,0.2,8.5,0.4,8.9c0.6,1.3,1.5,1.3,4.3,1.3H67.9z"></path>
      </g>
</g>
      </symbol>
      <symbol id="svg-main-title-3-2" viewBox="0 0 100 100">
            

<g id="sha">
      <g>
            <path d="M28.1,56.1c-0.2,0-0.3,0-4.6,1.2c-3,0.8-6.8,1.8-7.8,2l-0.9,0.2c-0.5,0.1-1.1,0.2-1.8,0.3c6.6-2,15.1-5.6,23.2-9.7
                  c4.4-2.3,7.7-4.2,10-5.8c2.5-1.7,11-8,15.3-11.9c6.1-5.6,10.8-10.9,14.3-16.4c0.2-0.3,0.3-0.5,0.4-0.7c1.6,1.1,6.2,5.3,6.4,6.5
                  c0,0.1,0,0.2,0,0.2c-0.3,0.1-1.1,0.3-1.9,0.5c-2.8,0.6-7.6,5-12.6,9.9c-0.2,0.2-0.4,0.4-0.7,0.7c-1.1,1-1.7,1.6-2,2
                  c-0.4,0.5-4.8,3.9-6.2,4.9c-1.1,0.6-2.5,1.6-4.4,2.9l-0.5,0.3c-6.7,4.3-12.2,7.4-16.4,9.2l-0.4,0.2L28.1,56.1z"></path>
      </g>
</g>
      </symbol>
      <symbol id="svg-main-title-3-3" viewBox="0 0 100 100">
            
<g id="sha_1_">
      <g>
            <path d="M37.8,52.5c0,0-1.9,0.8-1.9,1.9c0,0.6,0.3,1.9,2.6,1.9h28.1c0.8,0,2.4,0,3.5-1.6l0.5-0.6c1.2-1.6,1.6-2.2,1.8-2.2
                  c1.1,0.3,5.4,4.8,6.2,6.1c-0.1,0.1-0.4,0.3-1.3,0.6c-1.5,0.5-1.8,1.3-2,2.2l0,0.1c-0.1,0.3-0.2,1-0.2,10.9c0,1.3,0.2,5.8,0.3,9.8
                  c0.1,2.7,0.2,5.3,0.2,5.8c0,3.6-4,3.8-4,3.8c-1.5,0-1.5,0-1.8-2.1l0-0.1c-0.2-1.2-1-2.6-3.5-2.6H39.7c-2.5,0-2.9,1.1-3.6,3.3
                  c-0.5,1.3-2.6,2-4.4,2c-1.3,0-1.4-0.3-1.4-1.4c0-0.1,0-0.7,0.1-1.4c0.1-1.6,0.2-2.8,0.2-3.1c0.3-6.1,0.3-18.6,0.3-21
                  c0-7.3,0-8.8-2.7-8.8c-0.2,0,2.2-1,4.5-3c1.2-0.7,2.2-1.6,3.6-3C36.8,50.1,37.8,52.5,37.8,52.5z M39.7,70.9
                  c-4.1,0-4.1,2.8-4.1,4.5c0,8.8,0.1,10.7,4.2,10.7h26.3c4.2,0,4.2-2,4.2-10.7c0-1.6,0-4.5-4.1-4.5H39.7z M39.4,56.5
                  c-3.7,0-3.7,2.4-3.7,6.8c0,5.4,0,7.4,4.1,7.4h26.9c3.7,0,3.7-2.6,3.7-5.6c0-6.8,0-8.6-3.7-8.6H39.4z"></path>
      </g>
</g>
      </symbol>
      <symbol id="svg-main-title-4-1" viewBox="0 0 100 100">
<g id="nan">
      <g>
            <path d="M23.7,30.5c-0.4,0-1.5,0-1.5-1.7c0-0.4,0.1-1.6,0.2-2.6c0.1-1.3,0.2-2.6,0.2-3.1c0-2-1-3-3.1-3c-0.4,0-4.4,0.1-6,0.3
                  c-0.2,0-0.4,0-0.8,0.1c-0.1,0-0.1,0-0.2,0l-0.8-1.3c0.8,0.1,1.7,0.1,2.7,0.2c2.2,0.2,4.2,0.3,5,0.3c2.4,0,3.5-1,3.5-3.2
                  c0-2.5-0.4-4.9-0.8-6.4c0-0.2-0.1-0.5-0.3-1.4c1.4,0.3,3.8,1,4.8,1.2l0.9,0.2l0.1,0c0.2,0,0.3,0.1,0.3,0.2c0,0,0,0.3-0.5,0.8
                  c-1,1-1.3,1.5-1.3,3.9c0,2,0,4.7,4.1,4.7h3.2c4,0,4-2.4,4-4.6c0-1.9,0-4.1-0.3-5.1c0-0.1-0.1-0.5-0.2-0.9c0-0.2-0.1-0.4-0.1-0.6
                  c1.3,0.3,3.4,0.8,4.1,1c1.1,0.3,1.6,0.4,1.8,0.6c0,0,0,0.1,0,0.2c0,0.1,0,0.1,0,0.1c-0.1,0.2-0.6,0.8-0.8,1
                  c-0.8,1-1.1,1.6-1.1,4.9c0,0.8,0,3.3,3.2,3.3c1.8,0,2.4-0.6,3.4-1.9c0.6-0.7,1.4-1.7,1.9-2.1c1.3,0.9,4.1,3.3,4.5,4.2
                  C53.4,20,52.1,20,51.2,20h-6.8c-2.9,0-3.6,2-3.6,3.7c0,0.3,0,1.1,0.1,1.9c0,0.8,0.1,1.7,0.1,2.1c0,2.6-2.1,2.7-2.5,2.7
                  c-1.2,0-1.4-0.5-1.4-1.8c0-0.3,0.1-1.3,0.1-2.2c0.1-1.1,0.2-2.1,0.2-2.6c0-3.8-2.8-3.8-4-3.8h-3.2c-2.7,0-3.9,1-4.1,3.5
                  c-0.1,0.6-0.1,2.2,0,4c0,0.4,0,0.8,0,1C26.1,29,25,30.5,23.7,30.5z"></path>
      </g>
</g>
      </symbol>
      <symbol id="svg-main-title-4-2" viewBox="0 0 100 100">
<g id="nan_1_">
      <g>
            <path d="M16.6,90.4c1.9-1.5,3.9-3.5,5.8-5.8c3-3.8,4.9-8.8,4.9-9.9c0-2.8-2.3-2.8-3-2.8H22c-0.5,0-1,0-1.6,0c-0.7,0-1.5,0-2.2,0
                  c-1.8,0-3.2,0.1-4.4,0.2c-0.3,0-0.7,0.1-1.4,0.2c-0.1,0-0.2,0-0.3,0l-0.7-1.1c0.5,0.1,0.7,0.1,0.9,0.1c2.4,0.2,7.2,0.4,10,0.4h2.2
                  c2.6,0,4.4-1.1,4.4-6.7c0-3.5-2-3.5-6.1-3.5c0,0-2,0-2.6,0c-2.1,0-3.5,0.1-4.4,0.2c-0.2,0-0.5,0.1-0.9,0.2c0,0-0.1,0-0.1,0
                  l-0.7-1.2c0.4,0,0.7,0.1,0.9,0.1c2.2,0.2,7.1,0.4,9.3,0.4c2.8,0,4.2,0,4.9-2.1c0.3-0.9,0.3-1.4,0.3-5.3c0-2.9-0.7-4.6-4.1-4.6
                  c-3.1,0-4.7,0-5.2,2.5c-0.3,1.5-1.2,2.3-2.7,2.3c-1.1,0-1.5-0.4-1.5-1.8c0,0,0.1-0.4,0.1-0.9c0.2-1.5,0.2-2.2,0.3-2.5
                  c0.1-0.7,0.1-1.2,0.1-2.8c0-0.7,0-1.7,0-3c0-6.1-0.1-7.7-0.6-10.5l0-0.1l0-0.1c0-0.1-0.1-0.3-0.2-0.6c0,0,0,0,0-0.1
                  c0.9,0.3,2.2,0.9,4.3,2c2.1,1.1,2.8,1.2,4.6,1.2H40c0.9,0,2.3,0,3.6-1.5c0.2-0.3,0.5-0.7,0.7-1c1.1,0.8,3.6,2.8,4.3,3.6
                  c-0.1,0.3-0.5,0.7-0.7,0.8l-0.1,0l-0.1,0.1c-1.2,1.2-1.5,1.5-1.5,3.1c0,2.5,0,3.7,1.5,3.8l-0.1,0.1c-1.4,1.4-1.4,2.2-1.4,7.5
                  c0,1.7-0.9,2.5-2.7,2.5c-0.8,0-0.9,0-1-1.5l0-0.2c-0.1-1.4-0.8-3.1-3.8-3.1h-1.5c-4,0-4,1.9-4,8.1c0,3.8,2.9,3.8,4,3.8h2.4
                  c3.1,0,3.9,0,5.4-2c0.5-0.6,0.8-1,1-1.2c1,0.7,3.3,2.6,3.8,3.4c-0.3,0.2-1.6,0.2-2.6,0.2H37c-3.1,0-4.5,1-4.5,6.8
                  c0,3.4,2.9,3.4,4,3.4h4.1c3.2,0,3.9-0.2,4.6-1.1c0.2-0.2,0.3-0.5,0.5-0.9c0.3-0.5,0.9-1.6,1.3-2.2c1.2,0.9,4,3.5,4.6,4.4
                  c-0.3,0.1-1.5,0.1-2.6,0.1H34.2c-2.2,0-3,1.2-3,2.2c0,0.4,0.2,0.8,0.3,1c-0.7,0.2-1.3,0.7-1.7,1.6c-2.1,4.1-2.9,5.6-5.9,8.7
                  C22,87.4,19.1,89.2,16.6,90.4z M37.3,34.9c-4.1,0-4.1,2.2-4.1,6.1c0,6,0,7.8,4.1,7.8h1.8c4,0,4-2.2,4-6.1c0-5.8,0-7.8-4-7.8H37.3z
                   M25.5,34.9c-2.2,0-4.1,0-5,1.7C20,37.5,20,37.5,20,43.1c0,4.8,0.4,5.7,5.5,5.7c4,0,4-1.8,4-8.7C29.6,37.6,29.6,34.9,25.5,34.9z"></path>
      </g>
</g>
      </symbol>
      <symbol id="svg-main-title-4-3" viewBox="0 0 100 100">
<g id="nan_2_">
      <path d="M46.1,89.4c-0.8,0-1-0.1-4.4-5.3c-1.5-2.3-4-5.1-6.2-6.9c1.5,0.7,2.9,1.3,3.2,1.5l0.5,0.2c2.7,1.3,8.3,3.9,8.3,7.8
            C47.5,87.9,46.9,89.4,46.1,89.4z"></path>
</g>
      </symbol>
      <symbol id="svg-main-title-4-4" viewBox="0 0 100 100">

<g id="nan_3_">
      <g>
            <path d="M56.9,91.3c-1.4,0-1.6-0.5-1.6-2c0-0.8,0.3-3.7,0.4-5.9c0.1-1.2,0.2-2.2,0.2-2.7c0.4-9.4,0.7-33,0.7-42.2
                  c0-1.1-0.8-1.7-1.5-1.7c-0.6,0-1.1,0.4-2.2,1.6c-0.6,0.8-1.4,1.6-2.4,2.5c2.2-3.7,4.8-10.1,5.7-12.9c1.9-5.6,4.3-12.5,4.5-19.6
                  c1.5,0.5,4.7,1.6,5.3,1.8c1.6,0.6,2.2,1.1,2.2,1.8c0,0.5,0,0.5-1.6,1c-2.4,0.9-6.4,13.5-6.4,14.2c0,2.5,2.3,2.5,3,2.5h4.4
                  c3.9,0,4.9-1,8.6-13.2c0.6-1.9,1.4-4.7,1.5-7.6c0.6,0,1.4,0.3,4.9,1.4l0.1,0c1.4,0.5,2.1,0.7,2.1,1.1c0,0,0,0,0,0
                  c-0.2,0.2-1,0.5-1.8,0.9l-0.3,0.1c-1.4,0.7-6.9,13.9-6.9,14.7c0,2.4,2.1,2.4,4.1,2.4c2.9,0,3.9-0.3,4.8-1.3
                  c0.2-0.2,0.4-0.6,0.8-1.3c0.3-0.6,1.1-1.8,1.5-2.4c1.5,1,5.2,4.2,5.8,5.2c-0.6,0.1-2.1,0.1-4,0.1h-9c-4.8,0-4.8,1.5-4.8,11.6
                  c0,2.7,0,5.2,3.5,5.2c3.1,0,4.1-0.9,5.3-3.1c0.3-0.7,1-1.6,1.4-1.8c1.2,0.5,5.4,3.9,5.7,5c-0.3,0.2-2.2,0.2-3.9,0.2h-7.9
                  c-0.8,0-3.4,0-3.9,2.7c0,0.1-0.1,0.6-0.1,11c0,1.3,0,4.1,3.5,4.1c2.1,0,3.9-0.9,5-2.4c0.9-1.3,1.6-2.3,1.9-2.5
                  c1.2,0.5,5.2,3.8,5.7,4.9c-0.5,0.2-2.4,0.2-4,0.2h-7.9c-0.8,0-3.4,0-3.9,2.8l0,0c-0.1,0.4-0.1,1.8-0.1,12.2c0,1.8,0.4,3.7,3.7,3.7
                  c4.9,0,6.1,0,7.9-3c1.3-2.1,2-2.5,2.2-2.6c1.1,0.5,4.9,4.4,5.5,5.6c-0.4,0.3-2.2,0.3-3.9,0.3H64c-3.6,0-4,1.9-4.1,4.1
                  C59.9,90.3,57.6,91.3,56.9,91.3z M64,65.4c-4.1,0-4.1,1.8-4.1,7.2l0,0.6c-0.1,8.2,0.1,8.6,0.3,9c0.7,1.7,3.1,1.7,3.8,1.7h3.8
                  c4.1,0,4.1-1.7,4.1-7.2c0-0.1,0-8.7-0.4-9.5c-0.9-1.9-3.1-1.9-3.8-1.9H64z M63.8,47.3c-3.9,0-3.9,1.7-3.9,8.2c0,8.1,0,9.6,3.9,9.6
                  h4.4c3.9,0,3.9-1.9,3.9-8.2c0-8.1,0-9.6-3.9-9.6H63.8z M63.7,30.2c-3.9,0-3.9,2.4-3.9,6.4c0,9,0,10.4,3.9,10.4H68
                  c3.8,0,3.8-2.7,3.8-5.7c0-9.6,0-11-3.9-11H63.7z"></path>
      </g>
</g>
      </symbol>
      <symbol id="svg-main-title-5-1" viewBox="0 0 100 100">
<g id="ru">
      <g>
            <path d="M57,19c0-1.2-1-2.4-2.9-2.4c-3.4,0-8,3.5-11.2,6.1l-0.2,0.2c-3.8,3.2-4.9,3.2-6,3.2c-2.7,0-4.9-2.9-5.8-4.6
                  c0.2,0,0.5,0,0.7,0c5.2,0,12.4-2.4,15.1-3.5c5.9-2.6,6.4-2.7,8.2-2.7c3.5,0,8.8,2.2,8.8,5.4c0,0-0.9,0.9-3.6,0S57,19,57,19z"></path>
      </g>
</g>
      </symbol>
      <symbol id="svg-main-title-5-2" viewBox="0 0 100 100">
<g id="ru_1_">
      <g>
            <path d="M41.8,51.3c-6.4,4-10.6,10.5-12.1,13l-0.2,0.4c-1.8,3-2.5,4.1-4.2,4.1c-1.6,0-1.6-1.4-1.6-1.5c0-1.9,0.5-3.7,7.2-11.6
                  c6.1-7.2,6.9-8.2,21.4-28.6c3.4-4.9,4.7-6.7,4.7-8.1c0,0,1.1-2.2,3.9-1.6c2.8,0.6,2.8,3.3,2.8,3.3c0,2.1-1.6,3.3-6.2,6.5
                  c-6.6,4.7-15.6,17.9-15.6,20.3c0,0.8,0.7,1.8,1.7,1.8C44.9,49.1,41.8,51.3,41.8,51.3z"></path>
      </g>
</g>
      </symbol>
      <symbol id="svg-main-title-5-3" viewBox="0 0 100 100">
<g id="ru_2_">
      <g>
            <path d="M43.5,49.1h0.2l0.2-0.1c0.3-0.1,0.8-0.3,1.2-0.4c0.4-0.2,0.9-0.3,1.1-0.4c2.7-1,5.2-1.5,8-1.5c11.3,0,20.2,8.2,20.2,18.6
                  c0,9.3-8.6,19.3-22.6,19.3c-8.6,0-15-4.6-15-8.6c0-2.6,3.3-6.6,8.3-6.6c4.6,0,7.9,3.1,9.9,5.6l0.2,0.3c1.2,1.5,2.1,2.7,3.8,2.7
                  c3.7,0,10.9-6.2,10.9-14.7c0-8.7-7.5-15.5-17.1-15.5c-3.4,0-6.5,0.9-9.3,2.3c-1.2,0.6-2.3,1.3-3.4,2.1c0,0-0.7-0.8,0.4-1.9
                  S43.5,49.1,43.5,49.1z M44.6,70.8c-2.9,0-5.1,2.3-5.1,4.4c0,3.3,4.8,5.5,9.2,5.5c1.6,0,2.7-1.2,2.7-2.8
                  C51.5,75.1,48.7,70.8,44.6,70.8z"></path>
      </g>
</g>
      </symbol>
      <symbol id="svg-main-title-6-1" viewBox="0 0 100 100">
<g id="ryu">
      <path d="M29.5,21.1c-1.4,0-2.2-0.8-3.6-3.6c-1.1-2.1-2.2-3.9-5-7c0,0,0,0,0,0c3.1,0.3,10.7,2.1,10.7,7.9c0,1.6-0.6,2.2-1.3,2.5
            C30.1,21,29.8,21.1,29.5,21.1z"></path>
</g>
      </symbol>
      <symbol id="svg-main-title-6-2" viewBox="0 0 100 100">
<g id="ryu_1_">
      <path d="M21.8,41.9c-0.8,0-1.4-1-5.1-7.3c-0.7-1.1-1.5-2.2-2.4-3.2c1.3,0.1,3,0.6,4.5,1.3c1.3,0.6,5,2.5,5,6.8
            C23.9,41.5,22.8,41.9,21.8,41.9z"></path>
</g>
      </symbol>
      <symbol id="svg-main-title-6-3" viewBox="0 0 100 100">
<g id="ryu_2_">
      <path d="M21.8,91.8c-1.8,0-2.2-2.5-2.6-6l0-0.2C18.3,76,16.5,74.4,12.9,72c1.4-0.3,2.2-0.4,2.6-0.7c2-1.2,4.1-4.8,6.4-11
            c3.5-9.3,4.8-12.7,6.2-17c-0.6,3.7-1.7,8.8-3.5,15.5c-2.3,8.6-2.4,11.1-2.4,15.3c0,2.4,0.2,3.7,1.9,8.3l0.5,1.4
            c1,2.7,1.2,3.3,1.2,4.1c0,1.7-1.9,3.5-3.1,3.8C22.3,91.8,22,91.8,21.8,91.8z"></path>
</g>
      </symbol>
      <symbol id="svg-main-title-6-4" viewBox="0 0 100 100">
<g id="ryu_3_">
      <path d="M37.9,90.4c1-1.3,1.9-2.4,2.1-2.8c4.8-7.8,6.9-15.6,6.9-26.2c0-3.1-0.2-5.4-0.5-6.9c-0.4-1.6-0.4-1.9-0.4-2.2
            c1.1,0.1,2.5,0.4,3.4,0.7c1.8,0.5,3.6,1.1,4,1.4c-0.1,0.3-0.6,1-0.9,1.4c-0.4,0.6-0.7,0.9-0.8,1.2c-0.3,0.9-0.5,3.1-0.8,6
            c-0.1,1.1-0.2,2.1-0.3,2.5C48.9,80.1,41.5,87.5,37.9,90.4z"></path>
</g>

      </symbol>
      <symbol id="svg-main-title-6-5" viewBox="0 0 100 100">
<g id="ryu_4_">
      <path d="M63.6,91.9c-0.9,0-2-0.4-2-2.1c0-0.7,0.3-4.3,0.5-7.4c0.2-2.8,0.4-5.5,0.5-6.5c0.2-2.5,0.2-4.5,0.2-8.3
            c0-6.8,0-7.6-0.5-10.9c-0.5-3-0.6-3.5-0.6-3.6c0-0.1,0-0.2,0.2-0.2c0.6,0,1.8,0.3,2.6,0.6l0.4,0.1l0.6,0.2c1.8,0.6,3.2,1,3.5,1.3
            c0,0,0,0.1,0,0.2c-0.1,0.2-0.4,0.5-0.8,0.9l-0.3,0.3c-1.5,1.2-1.5,2.1-1.5,10.7c0,2.1,0.1,4.8,0.2,7.7c0,1.5,0.1,3,0.1,4.5l0.1,1.4
            c0.1,2.1,0.5,6.9,0.5,7.3C67,91.7,64.1,91.9,63.6,91.9z"></path>
</g>
      </symbol>
      <symbol id="svg-main-title-6-6" viewBox="0 0 100 100">
<g id="ryu_5_">
      <path d="M86.3,90.3c-8.5,0-8.8-0.5-8.8-13.8c0-12.6,0-14.9-0.6-21.1c0-0.3-0.1-0.7-0.2-1.2c-0.1-0.6-0.4-1.8-0.4-2.2c0,0,0,0,0,0
            c0.9,0,1.9,0.1,2.8,0.3c2.2,0.5,3.3,1,3.6,1.3c-0.1,0.2-0.5,0.7-0.9,1.2l-0.2,0.3c-0.8,1-0.8,2.3-0.8,3.1c0,2,0.1,17.2,0.5,22.1
            c0.3,4,1.2,5.7,6.1,5.7c5,0,5.7-2.4,7.2-7.1c0,0,0.3-0.9,0.5-1.6c0.3-0.9,0.8-2.7,1.4-4.5c0,5.5,0.2,6.6,0.9,8.6
            c0.2,0.4,0.4,0.8,0.9,1.5c0.3,0.5,0.9,1.4,1,1.7c-0.1,1.1-1,2.4-2.7,3.8C94.7,89.7,91.2,90.3,86.3,90.3z"></path>
</g>
      </symbol>
      <symbol id="svg-main-title-6-7" viewBox="0 0 100 100">
<g id="ryu_6_">
      <path d="M88.4,49c-1.1,0-1.1,0-2.7-4.2l-0.1-0.2c-0.5-1.4-1.1-2.8-2.8-3.1c0.3-0.4,0.3-0.8,0.3-1.5c0-0.5,0-1.2-4.4-7.7l-0.1-0.1
            c-0.2-0.2-0.6-0.7-1-1.3c4.9,2.7,13.9,8.6,13.9,13.5C91.6,47.4,89.7,49,88.4,49z"></path>
</g>
      </symbol>
      <symbol id="svg-main-title-6-8" viewBox="0 0 100 100">

<g id="ryu_7_">
      <g>
            <path d="M51.8,40.3c0,1,0.7,2,2.3,2c3.4,0.2,11.4,0.2,21.6,0.2c0.2,0,0.4,0,0.6,0c-0.1,0-1,0.2-1,0.2c-2.7,0.5-12.7,1.9-20,2.9
                  c-6,0.8-7.4,1-7.8,1.1c-1.8,0.2-3.2,0.9-4.2,1.4c-0.7,0.4-0.9,0.4-0.9,0.4c-0.4,0-0.6,0-1.2-1.7c-1.4-3.7-2-5.1-2.1-6
                  c0.5,0.1,1.4,0.3,1.8,0.4c0.4,0.1,0.8,0.2,1,0.2l0.1,0h0.1c0.3,0,2,0.2,3.3,0.3c1.7,0.2,2.4,0.2,2.7,0.2c1.7,0,3-0.9,3.9-2.8
                  L51.8,40.3z"></path>
      </g>
</g>
      </symbol>
      <symbol id="svg-main-title-6-9" viewBox="0 0 100 100">
<g id="ryu_8_">
      <g>
            <path d="M57.9,23.1 M52.1,39.1c1.1-2.4,2.6-6.5,4.5-12.2l0.2-0.6v-0.2c0-1.6-1.1-2.7-2.7-2.7h9.7c-0.5,0-1.8,0-1.8,1.2
                  c0,0.5,0.2,0.8,1,1.8c0.2,0.3,0.5,0.7,0.8,1.1c-0.1,0-0.2,0-0.3,0c-1.7,0.1-2.2,0.8-4.2,3.2l-0.1,0.1c-3.1,3.7-5,6-6.3,7.3
                  c-0.4,0.4-1.1,1.2-1.1,2.1"></path>
      </g>
</g>
      </symbol>
      <symbol id="svg-main-title-6-10" viewBox="0 0 100 100">
        
<g id="ryu_9_">
      <g>
            <path d="M54,23.5h-2.4c-2.2,0-8.7,0-12.1,0.2l-0.1,0l-0.1,0c-0.2,0.1-1,0.2-1.4,0.2c0,0-0.2-0.2-0.3-0.3l-0.9-1.1
                  c0.9,0.1,1.9,0.2,2.3,0.2l0.1,0c4.3,0.2,8.5,0.3,12.9,0.3h5.9c3,0,4.3-2.1,4.3-4c0-4.4,0-5.7-0.4-7.5c-0.1-0.4-0.3-0.8-0.6-1.5
                  c-0.2-0.6-0.6-1.5-0.8-2c0.1,0,0.2,0,0.4,0c1.9,0.1,8.5,1.5,9.4,2.6c-0.1,0.2-0.7,0.7-1.2,1.2l-0.2,0.1c-1.6,1.4-1.8,4.4-1.8,7.5
                  c0,1.5,1.2,3.7,4.4,3.7h9.9c4.5,0,5.6,0,6.5-1c0.2-0.2,0.6-0.6,1.1-1.3c0.5-0.7,1.7-2.2,2.3-2.7c1.5,0.6,6.2,4.1,6.8,5.2
                  c-0.4,0.2-1.9,0.2-3.1,0.2H63.8H54z"></path>
      </g>
</g>

      </symbol>
      <symbol id="svg-main-title-7-1" viewBox="0 0 100 100">
 
<g id="su">
      <g>
            <path d="M62.2,46.2c0.2,0.7,0.5,1.5,0.9,2.6c1.6,4,2.7,7,2.7,12.4c0,14.4-8.9,24.2-13.6,27.7c0,0,0-0.1,0.1-0.1
                  c1-1.3,2-2.5,2.4-2.9c2.7-4.1,5.5-10.4,5.5-14.5c0-1.8-1.1-2.4-2-2.4c-0.2,0-0.6,0-1.1,0.1c-0.4,0-0.7,0.1-0.9,0.1
                  c-4.1,0-8.5-4-8.5-11.3c0-2.5,0.6-10.8,8.2-12c0.7-0.1,1.2-0.2,1.7-0.4c0.9-0.5,1.9-1,3-0.7C61.6,45,62,45.6,62.2,46.2z M55,47.3
                  c-3,0-6.5,4.3-6.5,9.8c0,6,4.2,8.7,7.2,8.7c1.8,0,4.9-1.1,4.9-8.3c0-3.5-1-6.1-1.3-7C58.9,49.3,57.4,47.3,55,47.3z"></path>
      </g>
</g>
      </symbol>
      <symbol id="svg-main-title-7-2" viewBox="0 0 100 100">
            <g id="レイヤー_2" display="none">
      
            <rect x="0" y="-0.1" display="inline" fill="none" stroke="#000000" stroke-width="1.0018" stroke-miterlimit="10" width="100" height="100"></rect>
      
            <rect x="0" y="-0.1" display="inline" fill="none" stroke="#000000" stroke-width="1.0018" stroke-miterlimit="10" width="100" height="100"></rect>
      
            <rect x="0" y="-0.1" display="inline" fill="none" stroke="#000000" stroke-width="1.0018" stroke-miterlimit="10" width="100" height="100"></rect>
      
            <rect x="0" y="-0.1" display="inline" fill="none" stroke="#000000" stroke-width="1.0018" stroke-miterlimit="10" width="100" height="100"></rect>
      
            <rect x="0" y="-0.1" display="inline" fill="none" stroke="#000000" stroke-width="1.0018" stroke-miterlimit="10" width="100" height="100"></rect>
      
            <rect x="0" y="-0.1" display="inline" fill="none" stroke="#000000" stroke-width="1.0018" stroke-miterlimit="10" width="100" height="100"></rect>
      
            <rect x="0" y="-0.1" display="inline" fill="none" stroke="#000000" stroke-width="1.0018" stroke-miterlimit="10" width="100" height="100"></rect>
</g>

<g id="su_1_">
      <g>
            <path d="M55.8,45.8c3.6-0.5,3.6-2,3.6-6.9c0-5.1,0.2-7.3,0-9.5l-0.2-3.3c0-4.9-0.6-10.6-1.4-13.2c-0.1-0.4-0.4-0.8-0.9-1.5
                  c-0.1-0.1-0.2-0.2-0.3-0.4c0.1,0,0.3,0,0.5,0c3.4,0,6.8,1.2,6.8,3.6c0,0.2-0.1,0.8-0.2,1.3c-0.1,0.8-0.2,1.3-0.2,1.6
                  c0,0.9,0.3,1.7,0.9,2.4c-0.6,0.2-1.8,0.8-1.8,5.9c0,1.4-0.6,8.7-0.6,9.5c-0.1,1.6-0.1,3.9-0.1,7c0,2.7,0.1,3.5,1.3,6.6L55.8,45.8z
                  "></path>
      </g>
</g>
      </symbol>
      <symbol id="svg-main-title-7-3" viewBox="0 0 100 100">
            

<g id="su_2_">
      <g>
            <path d="M56.4,32.2c-1.2,0-11,1.9-17.1,3.8c-0.6,0.2-1.8,0.7-3.4,1.3c-2,0.8-5.6,2.4-6.4,2.4c-1.7,0-8.5-3.5-8.8-6.5
                  c0.1,0,0.3,0,0.4,0c2.4,0.3,4.8,0.5,5.8,0.5c7,0,20.5-2.3,25.9-3.2c1.3-0.2,2.3-0.4,3.2-0.6c0,0,9-1.3,9.4-1.3
                  c6.9,0,7.6-1.9,7.6-2.7c0-0.4-0.5-1.1-1.2-1.7c0.2,0.1,0.5,0.2,0.7,0.3c2.2,0.9,4.9,2,8.8,2c0.5,0,1.6-0.1,3.2-0.3
                  c1-0.1,2.2-0.2,2.5-0.2c0.4,0,4.3,0.1,4.3,2.6c0,0.9,0,2.2-4,2.2c-1,0-3.8-0.2-6.5-0.4c-2.7-0.2-5.2-0.4-6.1-0.4
                  c-0.1,0-8.2,0-10.6,1L56.4,32.2z"></path>
      </g>
</g>



      </symbol>



  </defs>
</svg>
